HIERARCHY
ROOT hip
{
  OFFSET 0 0 0
  CHANNELS 6 Xposition Yposition Zposition Zrotation Yrotation Xrotation
  JOINT abdomen
  {
    OFFSET 0 20.6881 -0.73152
    CHANNELS 3 Zrotation Xrotation Yrotation
    JOINT chest
    {
      OFFSET 0 11.7043 -0.48768
      CHANNELS 3 Zrotation Xrotation Yrotation
      JOINT neck
      {
        OFFSET 0 22.1894 -2.19456
        CHANNELS 3 Zrotation Xrotation Yrotation
        JOINT head
        {
          OFFSET -0.24384 7.07133 1.2192
          CHANNELS 3 Zrotation Xrotation Yrotation
          JOINT leftEye
          {
            OFFSET 4.14528 8.04674 8.04672
            CHANNELS 3 Zrotation Xrotation Yrotation
            End Site
            {
              OFFSET 1 0 0
            }
          }
          JOINT rightEye
          {
            OFFSET -3.6576 8.04674 8.04672
            CHANNELS 3 Zrotation Xrotation Yrotation
            End Site
            {
              OFFSET 1 0 0
            }
          }
        }
      }
      JOINT rCollar
      {
        OFFSET -2.68224 19.2634 -4.8768
        CHANNELS 3 Zrotation Xrotation Yrotation
        JOINT rShldr
        {
          OFFSET -8.77824 -1.95073 1.46304
          CHANNELS 3 Zrotation Xrotation Yrotation
          JOINT rForeArm
          {
            OFFSET -28.1742 -1.7115 0.48768
            CHANNELS 3 Zrotation Xrotation Yrotation
            JOINT rHand
            {
              OFFSET -22.5879 0.773209 7.07136
              CHANNELS 3 Zrotation Xrotation Yrotation
              JOINT rThumb1
              {
                OFFSET -1.2192 -0.487915 3.41376
                CHANNELS 3 Zrotation Xrotation Yrotation
                JOINT rThumb2
                {
                  OFFSET -3.37035 -0.52449 3.41376
                  CHANNELS 3 Zrotation Xrotation Yrotation
                  End Site
                  {
                    OFFSET -1.78271 -1.18214 1.43049
                  }
                }
              }
              JOINT rIndex1
              {
                OFFSET -7.75947 0.938293 5.60832
                CHANNELS 3 Zrotation Xrotation Yrotation
                JOINT rIndex2
                {
                  OFFSET -2.54057 -0.884171 1.56538
                  CHANNELS 3 Zrotation Xrotation Yrotation
                  End Site
                  {
                    OFFSET -1.62519 -0.234802 1.16502
                  }
                }
              }
              JOINT rMid1
              {
                OFFSET -8.24714 1.18213 3.41376
                CHANNELS 3 Zrotation Xrotation Yrotation
                JOINT rMid2
                {
                  OFFSET -3.10165 -0.590103 1.0647
                  CHANNELS 3 Zrotation Xrotation Yrotation
                  End Site
                  {
                    OFFSET -2.48547 -0.328903 0.83742
                  }
                }
              }
              JOINT rRing1
              {
                OFFSET -8.82822 0.546677 1.51678
                CHANNELS 3 Zrotation Xrotation Yrotation
                JOINT rRing2
                {
                  OFFSET -2.60934 -0.819778 -0.0198488
                  CHANNELS 3 Zrotation Xrotation Yrotation
                  End Site
                  {
                    OFFSET -2.33842 -0.294052 0.168128
                  }
                }
              }
              JOINT rPinky1
              {
                OFFSET -8.27202 -0.0477905 -0.4584
                CHANNELS 3 Zrotation Xrotation Yrotation
                JOINT rPinky2
                {
                  OFFSET -1.82734 -0.647385 -0.700984
                  CHANNELS 3 Zrotation Xrotation Yrotation
                  End Site
                  {
                    OFFSET -1.69225 -0.51767 -0.607171
                  }
                }
              }
            }
          }
        }
      }
      JOINT lCollar
      {
        OFFSET 2.68224 19.2634 -4.8768
        CHANNELS 3 Zrotation Xrotation Yrotation
        JOINT lShldr
        {
          OFFSET 8.77824 -1.95073 1.46304
          CHANNELS 3 Zrotation Xrotation Yrotation
          JOINT lForeArm
          {
            OFFSET 28.1742 -1.7115 0.48768
            CHANNELS 3 Zrotation Xrotation Yrotation
            JOINT lHand
            {
              OFFSET 22.5879 0.773209 7.07136
              CHANNELS 3 Zrotation Xrotation Yrotation
              JOINT lThumb1
              {
                OFFSET 1.2192 -0.487915 3.41376
                CHANNELS 3 Zrotation Xrotation Yrotation
                JOINT lThumb2
                {
                  OFFSET 3.37035 -0.52449 3.41376
                  CHANNELS 3 Zrotation Xrotation Yrotation
                  End Site
                  {
                    OFFSET 1.78271 -1.18214 1.43049
                  }
                }
              }
              JOINT lIndex1
              {
                OFFSET 7.75947 0.938293 5.60832
                CHANNELS 3 Zrotation Xrotation Yrotation
                JOINT lIndex2
                {
                  OFFSET 2.54057 -0.884171 1.56538
                  CHANNELS 3 Zrotation Xrotation Yrotation
                  End Site
                  {
                    OFFSET 1.62519 -0.234802 1.16502
                  }
                }
              }
              JOINT lMid1
              {
                OFFSET 8.24714 1.18213 3.41376
                CHANNELS 3 Zrotation Xrotation Yrotation
                JOINT lMid2
                {
                  OFFSET 3.10165 -0.590103 1.0647
                  CHANNELS 3 Zrotation Xrotation Yrotation
                  End Site
                  {
                    OFFSET 2.48547 -0.328903 0.83742
                  }
                }
              }
              JOINT lRing1
              {
                OFFSET 8.82822 0.546677 1.51678
                CHANNELS 3 Zrotation Xrotation Yrotation
                JOINT lRing2
                {
                  OFFSET 2.60934 -0.819778 -0.0198488
                  CHANNELS 3 Zrotation Xrotation Yrotation
                  End Site
                  {
                    OFFSET 2.33842 -0.294052 0.168128
                  }
                }
              }
              JOINT lPinky1
              {
                OFFSET 8.27202 -0.0477905 -0.4584
                CHANNELS 3 Zrotation Xrotation Yrotation
                JOINT lPinky2
                {
                  OFFSET 1.82734 -0.647385 -0.700984
                  CHANNELS 3 Zrotation Xrotation Yrotation
                  End Site
                  {
                    OFFSET 1.69225 -0.51767 -0.607171
                  }
                }
              }
            }
          }
        }
      }
    }
  }
  JOINT rButtock
  {
    OFFSET -8.77824 4.35084 1.2192
    CHANNELS 3 Zrotation Xrotation Yrotation
    JOINT rThigh
    {
      OFFSET 0 -1.70687 -2.19456
      CHANNELS 3 Zrotation Xrotation Yrotation
      JOINT rShin
      {
        OFFSET 0 -36.8199 0.73152
        CHANNELS 3 Zrotation Xrotation Yrotation
        JOINT rFoot
        {
          OFFSET 0.73152 -45.1104 -5.12064
          CHANNELS 3 Zrotation Xrotation Yrotation
          End Site
          {
            OFFSET -1.1221 -3.69964 12.103
          }
        }
      }
    }
  }
  JOINT lButtock
  {
    OFFSET 8.77824 4.35084 1.2192
    CHANNELS 3 Zrotation Xrotation Yrotation
    JOINT lThigh
    {
      OFFSET 0 -1.70687 -2.19456
      CHANNELS 3 Zrotation Xrotation Yrotation
      JOINT lShin
      {
        OFFSET 0 -36.8199 0.73152
        CHANNELS 3 Zrotation Xrotation Yrotation
        JOINT lFoot
        {
          OFFSET -0.73152 -45.1104 -5.12064
          CHANNELS 3 Zrotation Xrotation Yrotation
          End Site
          {
            OFFSET 1.1221 -3.69964 12.103
          }
        }
      }
    }
  }
}
MOTION
Frames:	7
Frame Time:	0.00833333
-5.27094 84.2564 36.5783 0.0 0.0 0.0 -1.24153 -0.0039811 -0.0340794 -0.342499 -0.00249238 -0.0593281 -1.36448e-14 0.0 2.48481e-17 -4.11733e-14 3.18055e-15 1.58407e-16 -0.0 0.0 0.0 -0.0 0.0 0.0 -6.76012e-15 1.84419e-17 1.98785e-16 -1.42416e-13 8.51047e-16 5.96354e-16 -2.48461e-12 7.59556e-13 2.54444e-14 -2.84811e-11 -6.75868e-13 3.18055e-14 -6.71748e-11 1.74797e-13 1.62208e-13 -1.16002e-10 2.95792e-13 2.69552e-13 -6.71709e-11 1.76521e-13 1.55847e-13 7.73091 5.47488 0.417314 -6.71746e-11 1.74931e-13 1.62208e-13 2.90554 0.965183 0.102902 -6.71662e-11 1.7503e-13 1.56642e-13 10.2786 0.731801 0.0259123 -6.71819e-11 1.76521e-13 1.59028e-13 2.22167 -0.733487 -0.20892 -6.85707e-15 1.72772e-17 -9.93923e-17 -1.45516e-13 5.40446e-16 -9.93923e-16 -2.49241e-12 -7.30335e-13 5.08889e-14 -2.84545e-11 8.07414e-13 2.54444e-14 -6.71327e-11 1.62925e-13 1.59028e-13 -1.15928e-10 2.79889e-13 2.87045e-13 -6.71383e-11 1.63401e-13 1.65389e-13 -7.73091 5.47488 -0.417314 -6.71316e-11 1.63103e-13 1.59028e-13 -2.90554 0.965183 -0.102902 -6.71449e-11 1.63302e-13 1.63003e-13 -10.2786 0.731801 -0.0259123 -6.71308e-11 1.64594e-13 1.59028e-13 -2.22167 -0.733487 0.20892 -2.03217e-16 0.0 -3.88251e-19 -0.453587 -1.92099 -0.00953136 -0.00915746 -2.07857 -0.0755685 -0.487721 3.99699 0.136692 2.03217e-16 0.0 3.88251e-19 -1.43703 -5.97118 0.12965 -0.00126595 5.25801 -0.0454295 0.507557 0.710717 -0.0722426
-7.06694 84.5244 36.45 -5.9763 -4.7679 -0.6575 0.195699 0.440373 1.28756 -0.970274 -0.333324 0.277514 -0.150422 1.20875 -0.652112 1.46157 -0.711654 -1.22916 -0.0 0.0 0.0 -0.0 0.0 0.0 -3.61161e-14 -1.4157e-14 -6.65995e-14 23.3397 7.74091 -3.36919 -6.2628 -3.41938 9.0786 0.0668903 5.74234 0.792466 2.13296e-10 -5.30437e-10 3.50311e-10 3.74068e-10 -9.17524e-10 6.01043e-10 2.13298e-10 -5.30431e-10 3.503e-10 7.73091 5.47488 0.417314 2.13295e-10 -5.30434e-10 3.5031e-10 2.90554 0.965183 0.102902 2.13302e-10 -5.30434e-10 3.50309e-10 10.2786 0.731801 0.0259123 2.13291e-10 -5.30433e-10 3.50313e-10 2.22167 -0.733487 -0.20892 -3.61996e-14 -1.41548e-14 -6.68681e-14 -23.24 8.74017 2.13676 6.04908 -3.2475 -8.84335 -0.0127397 2.50414 -0.350721 5.19071e-10 7.8526e-10 1.67645e-10 8.9858e-10 1.35545e-09 2.8465e-10 5.19064e-10 7.85261e-10 1.67655e-10 -7.73091 5.47488 -0.417314 5.19072e-10 7.8526e-10 1.67646e-10 -2.90554 0.965183 -0.102902 5.19061e-10 7.8526e-10 1.67649e-10 -10.2786 0.731801 -0.0259123 5.19074e-10 7.85262e-10 1.67643e-10 -2.22167 -0.733487 0.20892 -2.03217e-16 0.0 -3.88251e-19 -0.320681 0.672964 0.127408 -0.00438678 -2.07925 -0.0333841 -0.628764 -0.15805 -2.06812 2.03217e-16 0.0 3.88251e-19 0.848702 -3.6926 -2.28057 -0.0200383 6.16522 -0.110089 -0.368731 -4.02929 6.61056
-7.072 84.58 36.4576 -5.9905 -4.7916 -0.6539 1.69287 0.909099 2.68605 -1.62946 -0.682833 0.63396 -0.279003 2.48525 -1.34288 2.97179 -1.46256 -2.53017 -0.0 0.0 0.0 -0.0 0.0 0.0 -6.56691e-14 -3.05895e-14 -1.40476e-13 49.0362 15.8339 -7.14055 -11.7183 -6.74682 18.7761 -0.0385092 11.8107 1.65734 5.08569e-10 -1.0871e-09 7.17122e-10 8.8997e-10 -1.88041e-09 1.23042e-09 5.08567e-10 -1.08709e-09 7.17106e-10 7.73091 5.47488 0.417314 5.08565e-10 -1.08709e-09 7.1712e-10 2.90554 0.965183 0.102902 5.08571e-10 -1.08709e-09 7.17123e-10 10.2786 0.731801 0.0259123 5.08565e-10 -1.08709e-09 7.1713e-10 2.22167 -0.733487 -0.20892 -6.57381e-14 -3.05834e-14 -1.40712e-13 -48.5498 17.94 4.56817 11.3666 -6.4227 -18.2817 0.00724564 5.14959 -0.723509 1.14454e-09 1.61779e-09 3.36579e-10 1.98099e-09 2.79242e-09 5.71157e-10 1.14453e-09 1.61779e-09 3.36593e-10 -7.73091 5.47488 -0.417314 1.14454e-09 1.61778e-09 3.36581e-10 -2.90554 0.965183 -0.102902 1.14453e-09 1.61778e-09 3.36583e-10 -10.2786 0.731801 -0.0259123 1.14455e-09 1.61779e-09 3.36576e-10 -2.22167 -0.733487 0.20892 -2.03217e-16 0.0 -3.88251e-19 -0.193395 3.41467 0.273431 0.000656968 -2.07997 0.0112053 -1.12597 -4.53607 -4.41252 2.03217e-16 0.0 3.88251e-19 3.47348 -1.28542 -4.81913 -0.0375912 7.12393 -0.178697 -0.0914374 -8.83746 13.809
-7.08015 84.5789 36.4532 -6.0088 -4.8232 -0.6342 3.0087 1.32629 3.93177 -2.21415 -0.994861 0.951326 -0.368598 3.62438 -1.95982 4.29312 -2.13103 -3.68975 -0.0 0.0 0.0 -0.0 0.0 0.0 -9.48282e-14 -4.25079e-14 -2.00196e-13 72.9317 22.8876 -10.8813 -15.6388 -9.22962 27.5736 -0.294726 17.2135 2.47646 7.74239e-10 -1.59166e-09 1.05061e-09 1.35421e-09 -2.75316e-09 1.80259e-09 7.74235e-10 -1.59165e-09 1.05059e-09 7.73091 5.47488 0.417314 7.74234e-10 -1.59165e-09 1.05061e-09 2.90554 0.965183 0.102902 7.74239e-10 -1.59165e-09 1.05061e-09 10.2786 0.731801 0.0259123 7.74237e-10 -1.59165e-09 1.05062e-09 2.22167 -0.733487 -0.20892 -9.48847e-14 -4.24989e-14 -2.00406e-13 -71.859 26.0661 7.05668 15.2298 -8.81581 -26.8289 0.0544236 7.5113 -1.06026 1.69148e-09 2.35545e-09 5.02617e-10 2.9276e-09 4.06579e-09 8.53376e-10 1.69147e-09 2.35546e-09 5.02634e-10 -7.73091 5.47488 -0.417314 1.69148e-09 2.35545e-09 5.0262e-10 -2.90554 0.965183 -0.102902 1.69147e-09 2.35545e-09 5.02621e-10 -10.2786 0.731801 -0.0259123 1.69148e-09 2.35546e-09 5.02612e-10 -2.22167 -0.733487 0.20892 -2.03217e-16 0.0 -3.88251e-19 -0.0922073 5.86072 0.403357 0.0051576 -2.08062 0.050985 -1.875 -8.41401 -6.54784 2.03217e-16 0.0 3.88251e-19 5.99357 0.849317 -7.08617 -0.0513804 7.97958 -0.240206 1.19076 -12.7621 20.4539
-7.08722 84.5778 36.4502 -6.015 -4.8557 -0.6204 3.91456 1.61732 4.79463 -2.62086 -1.21331 1.17087 -0.419109 4.42187 -2.38891 5.20688 -2.5972 -4.49363 -0.0 0.0 0.0 -0.0 0.0 0.0 -1.23002e-13 -4.31411e-14 -2.24527e-13 90.2045 27.6613 -13.8099 -17.9012 -10.5808 33.7989 -0.571299 20.9654 3.08694 9.65903e-10 -1.96598e-09 1.30079e-09 1.68929e-09 -3.4006e-09 2.23175e-09 9.65898e-10 -1.96597e-09 1.30076e-09 7.73091 5.47488 0.417314 9.65897e-10 -1.96597e-09 1.30078e-09 2.90554 0.965183 0.102902 9.65901e-10 -1.96597e-09 1.30079e-09 10.2786 0.731801 0.0259123 9.65901e-10 -1.96597e-09 1.3008e-09 2.22167 -0.733487 -0.20892 -1.23052e-13 -4.31316e-14 -2.24726e-13 -88.5955 31.654 9.07653 17.4796 -10.138 -32.863 0.104136 9.16475 -1.29923 2.04208e-09 2.85599e-09 6.61415e-10 3.53469e-09 4.93017e-09 1.12488e-09 2.04206e-09 2.85599e-09 6.61435e-10 -7.73091 5.47488 -0.417314 2.04208e-09 2.85598e-09 6.61419e-10 -2.90554 0.965183 -0.102902 2.04207e-09 2.85599e-09 6.61419e-10 -10.2786 0.731801 -0.0259123 2.04208e-09 2.85599e-09 6.61409e-10 -2.22167 -0.733487 0.20892 -2.03217e-16 0.0 -3.88251e-19 -0.0295235 7.5678 0.490717 0.00829833 -2.08106 0.0787402 -2.57204 -11.0981 -8.07706 2.03217e-16 0.0 3.88251e-19 7.84872 2.32552 -8.67354 -0.0601434 8.57758 -0.283355 2.64674 -15.1987 25.2465
-7.09106 84.578 36.4513 -6.0184 -4.8541 -0.6248 4.26729 1.7355 5.1187 -2.78341 -1.30057 1.25266 -0.437581 4.74019 -2.55874 5.57827 -2.78976 -4.81027 -0.0 0.0 0.0 -0.0 0.0 0.0 -1.6019e-13 -2.30431e-14 -1.97983e-13 97.1098 29.4895 -15.0381 -18.6984 -11.0142 36.2661 -0.701713 22.4098 3.33377 1.09562e-09 -2.24725e-09 1.494e-09 1.91645e-09 -3.88697e-09 2.563e-09 1.09562e-09 -2.24724e-09 1.49398e-09 7.73091 5.47488 0.417314 1.09561e-09 -2.24725e-09 1.494e-09 2.90554 0.965183 0.102902 1.09562e-09 -2.24724e-09 1.49401e-09 10.2786 0.731801 0.0259123 1.09562e-09 -2.24724e-09 1.49402e-09 2.22167 -0.733487 -0.20892 -1.60239e-13 -2.30373e-14 -1.98198e-13 -95.259 33.8004 9.93407 18.2688 -10.5608 -35.2326 0.127979 9.83355 -1.39679 2.18245e-09 3.13954e-09 8.67255e-10 3.77862e-09 5.42082e-09 1.47966e-09 2.18244e-09 3.13954e-09 8.67274e-10 -7.73091 5.47488 -0.417314 2.18245e-09 3.13954e-09 8.67258e-10 -2.90554 0.965183 -0.102902 2.18244e-09 3.13954e-09 8.67257e-10 -10.2786 0.731801 -0.0259123 2.18246e-09 3.13954e-09 8.67247e-10 -2.22167 -0.733487 0.20892 -2.03217e-16 0.0 -3.88251e-19 -0.00861544 8.24027 0.516547 0.00953416 -2.08124 0.0896605 -2.88594 -12.1564 -8.68748 2.03217e-16 0.0 3.88251e-19 8.59547 2.90603 -9.2989 -0.0640373 8.80772 -0.300445 3.33315 -16.061 27.1562
-7.09369 84.578 36.4518 -6.0251 -4.8278 -0.6281 4.22929 1.73067 5.05784 -2.77235 -1.29415 1.23607 -0.439383 4.71672 -2.54242 5.56889 -2.78731 -4.77786 -0.0 0.0 0.0 -0.0 0.0 0.0 -2.0332e-13 1.16281e-14 -1.35161e-13 96.323 29.2909 -14.8786 -18.6234 -10.981 36.0182 -0.683909 22.2091 3.29933 1.17911e-09 -2.45781e-09 1.64369e-09 2.06305e-09 -4.25092e-09 2.81943e-09 1.17911e-09 -2.4578e-09 1.64367e-09 7.73091 5.47488 0.417314 1.1791e-09 -2.45781e-09 1.64369e-09 2.90554 0.965183 0.102902 1.17911e-09 -2.45781e-09 1.64369e-09 10.2786 0.731801 0.0259123 1.1791e-09 -2.4578e-09 1.6437e-09 2.22167 -0.733487 -0.20892 -2.03376e-13 1.16273e-14 -1.35413e-13 -94.486 33.527 9.79761 18.178 -10.5109 -34.9563 0.126249 9.79897 -1.39168 2.16958e-09 3.26263e-09 1.10397e-09 3.75781e-09 5.63505e-09 1.88926e-09 2.16958e-09 3.26263e-09 1.10399e-09 -7.73091 5.47488 -0.417314 2.16959e-09 3.26263e-09 1.10398e-09 -2.90554 0.965183 -0.102902 2.16958e-09 3.26263e-09 1.10397e-09 -10.2786 0.731801 -0.0259123 2.16959e-09 3.26263e-09 1.10396e-09 -2.22167 -0.733487 0.20892 -2.03217e-16 0.0 -3.88251e-19 -0.0149243 8.17376 0.497885 0.00940914 -2.08122 0.0885558 -2.85168 -12.0668 -8.61937 2.03217e-16 0.0 3.88251e-19 8.50911 2.8534 -9.23282 -0.0649032 8.77545 -0.298839 3.24409 -15.9483 26.9333
